<svg xmlns="http://www.w3.org/2000/svg" xmlns:xlink="http://www.w3.org/1999/xlink" width="148.866" height="148.866" viewBox="0 0 148.866 148.866">
  <defs>
    <clipPath id="clip-path">
      <circle id="Ellipse_6" data-name="Ellipse 6" cx="63.71" cy="63.71" r="63.71" transform="translate(277.053 127.857) rotate(-79.297)" fill="#91b508"/>
    </clipPath>
  </defs>
  <g id="Group_27" data-name="Group 27" transform="translate(-277.053 -2.654)" clip-path="url(#clip-path)">
    <g id="Group_26" data-name="Group 26">
      <g id="Group_19" data-name="Group 19">
        <path id="Path_30" data-name="Path 30" d="M354.413,28.344a5.49,5.49,0,1,1-5.491-5.489A5.491,5.491,0,0,1,354.413,28.344Z" fill="#bababa"/>
        <rect id="Rectangle_8" data-name="Rectangle 8" width="60.256" height="87.733" transform="translate(318.738 32.535)" fill="#6c3729"/>
        <path id="Path_31" data-name="Path 31" d="M374.113,98.335l-19.764,14.943h-30.73v-75.2h50.495Z" fill="#fff"/>
        <path id="Path_32" data-name="Path 32" d="M374.113,98.335l-19.764,14.943,9.883-19.041Z" fill="#c9e9fc"/>
        <rect id="Rectangle_9" data-name="Rectangle 9" width="22.416" height="10.847" transform="translate(337.659 28.678)" fill="#bababa"/>
        <path id="Path_33" data-name="Path 33" d="M346.075,33.9A2.571,2.571,0,1,1,343.5,31.33,2.571,2.571,0,0,1,346.075,33.9Z" fill="#6c3729"/>
        <path id="Path_34" data-name="Path 34" d="M356.7,33.9a2.57,2.57,0,1,1-2.571-2.571A2.571,2.571,0,0,1,356.7,33.9Z" fill="#6c3729"/>
        <g id="Group_18" data-name="Group 18">
          <line id="Line_10" data-name="Line 10" x2="35.658" transform="translate(331.699 53.263)" fill="none" stroke="#002d48" stroke-miterlimit="10" stroke-width="1.513"/>
          <line id="Line_11" data-name="Line 11" x2="20.49" transform="translate(331.699 60.132)" fill="none" stroke="#002d48" stroke-miterlimit="10" stroke-width="1.513"/>
          <line id="Line_12" data-name="Line 12" x2="11.752" transform="translate(355.606 60.132)" fill="none" stroke="#002d48" stroke-miterlimit="10" stroke-width="1.513"/>
          <line id="Line_13" data-name="Line 13" x2="20.49" transform="translate(331.699 66.359)" fill="none" stroke="#002d48" stroke-miterlimit="10" stroke-width="1.513"/>
          <line id="Line_14" data-name="Line 14" x2="11.752" transform="translate(355.606 66.359)" fill="none" stroke="#002d48" stroke-miterlimit="10" stroke-width="1.513"/>
          <line id="Line_15" data-name="Line 15" x2="20.49" transform="translate(331.699 72.585)" fill="none" stroke="#002d48" stroke-miterlimit="10" stroke-width="1.513"/>
          <line id="Line_16" data-name="Line 16" x2="11.752" transform="translate(355.606 72.585)" fill="none" stroke="#002d48" stroke-miterlimit="10" stroke-width="1.513"/>
          <line id="Line_17" data-name="Line 17" x2="20.49" transform="translate(331.699 78.571)" fill="none" stroke="#002d48" stroke-miterlimit="10" stroke-width="1.513"/>
          <line id="Line_18" data-name="Line 18" x2="11.752" transform="translate(355.606 78.571)" fill="none" stroke="#002d48" stroke-miterlimit="10" stroke-width="1.513"/>
          <line id="Line_19" data-name="Line 19" x2="20.49" transform="translate(331.699 84.798)" fill="none" stroke="#002d48" stroke-miterlimit="10" stroke-width="1.513"/>
          <line id="Line_20" data-name="Line 20" x2="11.752" transform="translate(355.606 84.798)" fill="none" stroke="#002d48" stroke-miterlimit="10" stroke-width="1.513"/>
          <line id="Line_21" data-name="Line 21" x2="20.49" transform="translate(331.699 91.024)" fill="none" stroke="#002d48" stroke-miterlimit="10" stroke-width="1.513"/>
          <line id="Line_22" data-name="Line 22" x2="11.752" transform="translate(355.606 91.024)" fill="none" stroke="#002d48" stroke-miterlimit="10" stroke-width="1.513"/>
        </g>
      </g>
      <g id="Group_25" data-name="Group 25">
        <g id="Group_20" data-name="Group 20">
          <path id="Path_35" data-name="Path 35" d="M367.624,66.655a18.758,18.758,0,1,1-11.714-23.8A18.759,18.759,0,0,1,367.624,66.655Z" fill="#002d48"/>
          <path id="Path_36" data-name="Path 36" d="M365.162,65.817a16.158,16.158,0,1,1-10.09-20.5A16.154,16.154,0,0,1,365.162,65.817Z" fill="#4aadd1"/>
          <path id="Path_37" data-name="Path 37" d="M347.31,75.963a16.159,16.159,0,0,1,4.2-31.425,16.158,16.158,0,1,0-.633,32.2A16.26,16.26,0,0,1,347.31,75.963Z" fill="#1885a6"/>
          <line id="Line_23" data-name="Line 23" x1="1.88" y2="5.524" transform="translate(341.942 78.369)" fill="none" stroke="#002d48" stroke-miterlimit="10" stroke-width="3.409"/>
          <line id="Line_24" data-name="Line 24" x1="7.049" y2="20.715" transform="translate(335.266 82.983)" fill="none" stroke="#002d48" stroke-linecap="round" stroke-miterlimit="10" stroke-width="5.682"/>
          <path id="Path_38" data-name="Path 38" d="M362.591,65.649c-2.2.6-4.914-2.336-6.071-6.562s-.313-8.138,1.883-8.738,4.915,2.336,6.072,6.561S364.789,65.048,362.591,65.649Z" fill="#79bbd5"/>
        </g>
        <g id="Group_24" data-name="Group 24">
          <g id="Group_22" data-name="Group 22">
            <g id="Group_21" data-name="Group 21">
              <path id="Path_39" data-name="Path 39" d="M410.892,183.99l-1.168-.312-3.161-.895c-2.7-.791-6.527-1.953-11.082-3.523s-9.844-3.538-15.466-6.118a84.227,84.227,0,0,1-8.639-4.547,46.505,46.505,0,0,1-4.419-3.028l-1.106-.888-1.106-.994c-.364-.312-.736-.732-1.1-1.1l-.637-.678-.373-.446-.755-.9-.887-1.143-.438-.573-.376-.538-.749-1.076c-.951-1.44-1.841-2.885-2.64-4.331a93.351,93.351,0,0,1-4.185-8.561,155.7,155.7,0,0,1-5.618-15.44c-1.408-4.555-2.417-8.381-3.088-11.076-.324-1.355-.578-2.42-.752-3.147-.168-.753-.257-1.154-.257-1.154l8.394-2.081.3,1c.213.674.526,1.662.923,2.919.823,2.516,2.053,6.108,3.7,10.33a145.538,145.538,0,0,0,6.256,13.993,82.538,82.538,0,0,0,4.209,7.249c.764,1.173,1.575,2.291,2.4,3.371l.635.781.316.392.3.327.58.656.8.826a23.03,23.03,0,0,0,6.021,3.855,71.542,71.542,0,0,0,7.561,3.063c5.149,1.778,10.207,3.115,14.563,4.16s8.049,1.777,10.617,2.262l2.966.535,1.007.165Z" fill="#f7a880"/>
            </g>
          </g>
          <g id="Group_23" data-name="Group 23">
            <path id="Path_40" data-name="Path 40" d="M326.5,102.625c-3.414-1.2-3.966-6.711-4.394-10-.568-4.353,3.871-3.731,3.871-3.731l2.99,2.022-2.2,7.593a3.981,3.981,0,0,0,2.76,2.172C331.81,100.846,328.984,103.017,326.5,102.625Z" fill="#f7a880"/>
            <path id="Path_41" data-name="Path 41" d="M326.762,98.514l.3-1.023a16.421,16.421,0,0,1-2.591-4.055,8.841,8.841,0,0,1-1.134-4.054,2.439,2.439,0,0,0-.929.961,1.109,1.109,0,0,1,.053.232c.1,4.089,1.563,10.329,7.524,10.2a1.941,1.941,0,0,0-.46-.085A3.981,3.981,0,0,1,326.762,98.514Z" fill="#d99573"/>
            <path id="Path_42" data-name="Path 42" d="M328.248,100.542c-3.413-1.2-3.757-3.265-4.7-6.439-1.041-3.5,1.008-8.882,4.032-9.354,2.978-.464,2.99,2.023,2.99,2.023l-2.2,7.59a3.983,3.983,0,0,0,2.76,2.174C333.415,96.7,330.734,100.934,328.248,100.542Z" fill="#f7a880"/>
            <path id="Path_43" data-name="Path 43" d="M327.569,84.752A8.45,8.45,0,0,0,325.441,91c.046,3.691,2.649,6.05,5.847,7.1.949-1.124,1.132-1.478-.161-1.568a3.983,3.983,0,0,1-2.76-2.174l2.2-7.59s-.012-2.487-2.99-2.023Z" fill="#d99573"/>
            <path id="Path_44" data-name="Path 44" d="M332.035,97.8c-3.413-1.2-4.359-2.412-5.3-5.588-1.042-3.5,1.531-9.621,4.555-10.093,2.977-.465,3.068,1.91,3.068,1.91l-2.2,7.592a3.984,3.984,0,0,0,2.76,2.173C337.2,93.95,334.523,98.188,332.035,97.8Z" fill="#f7a880"/>
            <path id="Path_45" data-name="Path 45" d="M330.365,86.313c-.5,1.994.866,5.968,2.108,7.742,1.6,2.286,1.2.723,3.271.336a.8.8,0,0,0-.83-.6,3.984,3.984,0,0,1-2.76-2.173l2.2-7.592a2.135,2.135,0,0,0-2.362-1.963C330.895,83.053,330.706,84.947,330.365,86.313Z" fill="#d99573"/>
            <path id="Path_46" data-name="Path 46" d="M343.448,115.434,326.5,102.625s6.213-10.1,10.136-11.195c3.294,1.859,6.249-.926,6.249-.926l2.091-6.961s5.469,5.911,5.505,11.491c.022,3.616.914,17.816.914,17.816Z" fill="#f7a880"/>
            <path id="Path_47" data-name="Path 47" d="M336.9,96.754c-3.413-1.2-4.359-2.413-5.3-5.588-1.041-3.5.645-9.564,3.669-10.035a3.522,3.522,0,0,1,3.955,1.852l-2.2,7.592a3.984,3.984,0,0,0,2.759,2.173C342.068,92.908,339.387,97.146,336.9,96.754Z" fill="#f7a880"/>
          </g>
        </g>
      </g>
    </g>
  </g>
</svg>
